<svg version="1.1" viewBox="0.0 0.0 720.0 720.0" fill="none" stroke="none" stroke-linecap="square" stroke-miterlimit="10" xmlns:xlink="http://www.w3.org/1999/xlink" xmlns="http://www.w3.org/2000/svg"><clipPath id="p.0"><path d="m0 0l720.0 0l0 720.0l-720.0 0l0 -720.0z" clip-rule="nonzero"/></clipPath><g clip-path="url(#p.0)"><path fill="#000000" fill-opacity="0.0" d="m0 0l720.0 0l0 720.0l-720.0 0z" fill-rule="evenodd"/><path fill="#000000" d="m0 0l720.0 0l0 720.0l-720.0 0z" fill-rule="evenodd"/><path stroke="#000000" stroke-width="1.0" stroke-linejoin="round" stroke-linecap="butt" d="m0 0l720.0 0l0 720.0l-720.0 0z" fill-rule="evenodd"/><path fill="#000000" fill-opacity="0.0" d="m220.53543 194.44095l358.9291 0l0 331.11813l-358.9291 0z" fill-rule="evenodd"/><path fill="#ffffff" d="m279.4573 364.34094l0 39.84375q0 8.4375 0.640625 12.25q0.65625 3.8125 1.9375 5.75q1.296875 1.921875 3.515625 3.15625q2.234375 1.234375 7.625 2.75l0 5.75l-49.453125 0l0 -5.75q7.265625 -1.875 9.71875 -4.15625q2.46875 -2.28125 3.21875 -6.5q0.765625 -4.21875 0.765625 -12.890625l0 -101.375q0 -8.078125 -0.59375 -11.765625q-0.578125 -3.703125 -1.921875 -5.75q-1.34375 -2.046875 -3.578125 -3.28125q-2.21875 -1.234375 -7.609375 -2.75l0 -5.75l58.0 0q27.421875 0 41.015625 9.96875q13.59375 9.953125 13.59375 30.9375q0 16.046875 -8.84375 27.296875q-8.84375 11.25 -26.546875 17.578125l0 0.9375q7.15625 2.9375 12.25 8.390625q5.09375 5.4375 11.3125 16.921875l10.546875 19.21875q4.5625 8.4375 7.84375 12.890625q3.28125 4.453125 6.671875 6.796875q3.40625 2.34375 9.03125 3.28125l0 5.75l-32.453125 0q-4.453125 -6.21875 -8.4375 -13.359375q-3.984375 -7.15625 -7.859375 -14.53125l-10.3125 -19.578125q-4.6875 -8.90625 -7.671875 -13.125q-2.984375 -4.21875 -5.515625 -5.90625q-2.515625 -1.703125 -5.390625 -2.34375q-2.859375 -0.65625 -8.609375 -0.65625l-12.890625 0zm0 -79.6875l0 69.609375l13.25 0q10.1875 0 16.515625 -1.453125q6.328125 -1.46875 11.71875 -5.5625q5.390625 -4.109375 8.609375 -11.4375q3.234375 -7.328125 3.234375 -17.984375q0 -11.140625 -3.8125 -18.515625q-3.8125 -7.390625 -11.546875 -11.25q-7.734375 -3.875 -20.859375 -3.875q-10.546875 0 -17.109375 0.46875zm216.44531 -7.375l0 32.453125l-11.59375 0q-2.8125 -10.1875 -7.15625 -16.21875q-4.328125 -6.046875 -10.078125 -8.625q-5.734375 -2.578125 -13.828125 -2.578125q-12.0625 0 -21.5 8.03125q-9.4375 8.03125 -14.828125 24.140625q-5.390625 16.109375 -5.390625 38.96875q0 22.96875 4.453125 39.203125q4.453125 16.21875 13.125 24.484375q8.671875 8.265625 21.328125 8.265625q9.609375 0 15.703125 -2.75q6.09375 -2.765625 10.25 -8.734375q4.171875 -5.984375 7.921875 -17.578125l11.59375 0l0 33.515625q-11.015625 2.921875 -22.5625 4.390625q-11.53125 1.46875 -25.359375 1.46875q-29.765625 0 -45.0 -20.15625q-15.234375 -20.15625 -15.234375 -60.125q0 -25.078125 7.90625 -43.9375q7.90625 -18.875 23.25 -29.1875q15.359375 -10.3125 36.6875 -10.3125q10.671875 0 19.6875 1.125q9.03125 1.109375 20.625 4.15625z" fill-rule="nonzero"/></g></svg>