<svg version="1.1" viewBox="0.0 0.0 960.0 720.0" fill="none" stroke="none" stroke-linecap="square" stroke-miterlimit="10" xmlns:xlink="http://www.w3.org/1999/xlink" xmlns="http://www.w3.org/2000/svg"><clipPath id="p.0"><path d="m0 0l960.0 0l0 720.0l-960.0 0l0 -720.0z" clip-rule="nonzero"/></clipPath><g clip-path="url(#p.0)"><path fill="#000000" fill-opacity="0.0" d="m0 0l960.0 0l0 720.0l-960.0 0z" fill-rule="evenodd"/><path fill="#000000" d="m27.690289 26.349081l377.82678 0l0 175.65355l-377.82678 0z" fill-rule="evenodd"/><path stroke="#000000" stroke-width="1.0" stroke-linejoin="round" stroke-linecap="butt" d="m27.690289 26.349081l377.82678 0l0 175.65355l-377.82678 0z" fill-rule="evenodd"/><path fill="#000000" fill-opacity="0.0" d="m33.17848 29.091864l391.55905 0l0 175.65355l-391.55905 0z" fill-rule="evenodd"/><path fill="#ffffff" d="m52.83473 83.21937l0 13.6875l4.84375 0q0.96875 0 1.375 0.359375q0.40625 0.359375 0.40625 0.953125q0 0.5625 -0.40625 0.9375q-0.40625 0.375 -1.375 0.375l-11.0 0q-0.9375 0 -1.34375 -0.375q-0.40625 -0.375 -0.40625 -0.9375q0 -0.59375 0.40625 -0.953125q0.40625 -0.359375 1.34375 -0.359375l3.53125 0l0 -31.3125l-3.53125 0q-0.9375 0 -1.34375 -0.359375q-0.40625 -0.359375 -0.40625 -0.953125q0 -0.5937538 0.40625 -0.9531288q0.40625 -0.359375 1.34375 -0.359375l15.875 0q4.906246 0 8.265621 3.1093788q3.359375 3.109375 3.359375 7.015625q0 2.8125 -2.078125 5.296875q-2.078125 2.484375 -6.953125 4.140625q2.8125 1.9375 4.8125 4.375q2.0 2.4375 6.40625 10.0l2.0 0q0.9375 0 1.34375 0.359375q0.40625 0.359375 0.40625 0.953125q0 0.5625 -0.40625 0.9375q-0.40625 0.375 -1.34375 0.375l-3.5 0q-4.875 -8.71875 -7.546875 -11.6875q-2.671875 -2.96875 -6.140621 -4.625l-8.34375 0zm0 -2.625l7.15625 0q3.4375 0 6.234371 -1.25q2.796875 -1.25 4.0625 -2.9375q1.265625 -1.6875 1.265625 -3.4375q0 -2.625 -2.640625 -5.0q-2.640625 -2.375 -6.421871 -2.375l-9.65625 0l0 15.0zm61.156246 6.03125l-26.75 0q0.6875 5.09375 4.265625 8.203125q3.578125 3.109375 8.859375 3.109375q2.9375 0 6.15625 -0.96875q3.21875 -0.96875 5.25 -2.5625q0.59375 -0.46875 1.03125 -0.46875q0.5 0 0.875 0.390625q0.375 0.390625 0.375 0.921875q0 0.53125 -0.5 1.03125q-1.5 1.5625 -5.328125 2.921875q-3.828125 1.359375 -7.859375 1.359375q-6.75 0 -11.265625 -4.421875q-4.515625 -4.421875 -4.515625 -10.703125q0 -5.71875 4.234375 -9.8125q4.234375 -4.09375 10.484375 -4.09375q6.4375 0 10.59375 4.203125q4.15625 4.203125 4.09375 10.890625zm-2.65625 -2.65625q-0.78125 -4.34375 -4.109375 -7.0625q-3.328125 -2.71875 -7.921875 -2.71875q-4.59375 0 -7.90625 2.6875q-3.3125 2.6875 -4.125 7.09375l24.0625 0zm28.656258 1.40625l12.03125 11.53125q1.1875 0 1.5 0.109375q0.3125 0.109375 0.546875 0.453125q0.234375 0.34375 0.234375 0.75q0 0.5625 -0.40625 0.9375q-0.40625 0.375 -1.375 0.375l-8.4375 0q-0.96875 0 -1.375 -0.375q-0.40625 -0.375 -0.40625 -0.9375q0 -0.59375 0.40625 -0.953125q0.40625 -0.359375 1.375 -0.359375l4.34375 0l-10.21875 -9.78125l-10.15625 9.78125l4.375 0q0.9375 0 1.34375 0.359375q0.40625 0.359375 0.40625 0.953125q0 0.5625 -0.40625 0.9375q-0.40625 0.375 -1.34375 0.375l-8.531258 0q-0.9375 0 -1.34375 -0.375q-0.40625 -0.375 -0.40625 -0.9375q0 -0.40625 0.234375 -0.75q0.234375 -0.34375 0.53125 -0.453125q0.296875 -0.109375 1.484375 -0.109375l12.031258 -11.53125l-10.687508 -10.25q-1.125 0 -1.421875 -0.125q-0.296875 -0.125 -0.53125 -0.46875q-0.234375 -0.34375 -0.234375 -0.75q0 -0.5625 0.40625 -0.9375q0.40625 -0.375 1.375 -0.375l7.1562576 0q0.96875 0 1.359375 0.375q0.390625 0.375 0.390625 0.96875q0 0.5625 -0.390625 0.9375q-0.390625 0.375 -1.359375 0.375l-3.125 0l8.84375 8.53125l8.90625 -8.53125l-3.125 0q-0.9375 0 -1.359375 -0.375q-0.421875 -0.375 -0.421875 -0.96875q0 -0.5625 0.40625 -0.9375q0.40625 -0.375 1.375 -0.375l7.15625 0q0.9375 0 1.34375 0.375q0.40625 0.375 0.40625 0.96875q0 0.375 -0.234375 0.71875q-0.234375 0.34375 -0.53125 0.46875q-0.296875 0.125 -1.421875 0.125l-10.71875 10.25z" fill-rule="nonzero"/><path fill="#ffffff" d="m72.928474 143.56311l0 -1.84375q0 -0.9375 0.359375 -1.34375q0.359375 -0.40625 0.953125 -0.40625q0.59375 0 0.953125 0.40625q0.359375 0.40625 0.359375 1.34375l0 7.28125q0 0.96875 -0.359375 1.375q-0.359375 0.40625 -0.953125 0.40625q-0.53125 0 -0.890625 -0.375q-0.359375 -0.375 -0.421875 -1.21875q-0.15625 -2.625 -2.84375 -4.65625q-3.625 -2.78125 -8.249996 -2.78125q-3.03125 0 -5.71875 1.34375q-2.0 0.96875 -3.1875 2.375q-2.0625 2.4375 -3.28125 5.40625q-0.875 2.1875 -0.875 4.9375l0 4.59375q0 5.875 4.25 10.203125q4.25 4.328125 9.875 4.328125q3.3749962 0 6.046871 -1.46875q2.671875 -1.46875 5.171875 -4.4375q0.53125 -0.65625 1.1875 -0.65625q0.5625 0 0.90625 0.34375q0.34375 0.34375 0.34375 0.875q0 0.71875 -1.34375 2.1875q-2.5625 2.875 -5.765625 4.328125q-3.203125 1.453125 -6.484371 1.453125q-2.84375 0 -5.78125 -1.09375q-2.25 -0.84375 -3.71875 -1.96875q-1.46875 -1.125 -3.609375 -3.796875q-2.140625 -2.671875 -2.921875 -4.9375q-0.78125 -2.265625 -0.78125 -4.984375l0 -5.34375q0 -3.875 2.078125 -7.921875q2.078125 -4.046875 5.6875 -6.21875q3.609375 -2.171875 7.828125 -2.171875q6.499996 0 11.187496 4.4375zm34.40625 32.96875l0 -3.78125q-5.71875 4.8125 -12.21875 4.8125q-4.71875 0 -7.375 -2.390625q-2.65625 -2.390625 -2.65625 -5.859375q0 -3.8125 3.5 -6.65625q3.5 -2.84375 10.21875 -2.84375q1.8125 0 3.9375 0.234375q2.125 0.234375 4.59375 0.734375l0 -4.25q0 -2.15625 -2.0 -3.75q-2.0 -1.59375 -6.0 -1.59375q-3.0625 0 -8.59375 1.78125q-1.0 0.3125 -1.28125 0.3125q-0.5 0 -0.859375 -0.375q-0.359375 -0.375 -0.359375 -0.9375q0 -0.53125 0.3125 -0.84375q0.4375 -0.46875 3.53125 -1.28125q4.875 -1.3125 7.375 -1.3125q4.96875 0 7.75 2.453125q2.78125 2.453125 2.78125 5.546875l0 17.375l3.5 0q0.96875 0 1.375 0.359375q0.40625 0.359375 0.40625 0.953125q0 0.5625 -0.40625 0.9375q-0.40625 0.375 -1.375 0.375l-6.15625 0zm0 -13.0625q-1.84375 -0.53125 -3.90625 -0.78125q-2.0625 -0.25 -4.34375 -0.25q-5.71875 0 -8.9375 2.46875q-2.4375 1.84375 -2.4375 4.40625q0 2.375 1.859375 4.0q1.859375 1.625 5.421875 1.625q3.40625 0 6.328125 -1.359375q2.921875 -1.359375 6.015625 -4.328125l0 -5.78125zm32.187508 -26.15625l0 36.59375l10.3125 0q0.96875 0 1.375 0.359375q0.40625 0.359375 0.40625 0.953125q0 0.5625 -0.40625 0.9375q-0.40625 0.375 -1.375 0.375l-23.250008 0q-0.9375 0 -1.34375 -0.375q-0.40625 -0.375 -0.40625 -0.9375q0 -0.59375 0.40625 -0.953125q0.40625 -0.359375 1.34375 -0.359375l10.312508 0l0 -33.9375l-7.5625 0q-0.9375 0 -1.3593826 -0.375q-0.421875 -0.375 -0.421875 -0.96875q0 -0.5625 0.40625 -0.9375q0.40625763 -0.375 1.3750076 -0.375l10.1875 0zm44.625 39.21875l0 -3.78125q-5.71875 4.8125 -12.21875 4.8125q-4.71875 0 -7.375 -2.390625q-2.65625 -2.390625 -2.65625 -5.859375q0 -3.8125 3.5 -6.65625q3.5 -2.84375 10.21875 -2.84375q1.8125 0 3.9375 0.234375q2.125 0.234375 4.59375 0.734375l0 -4.25q0 -2.15625 -2.0 -3.75q-2.0 -1.59375 -6.0 -1.59375q-3.0625 0 -8.59375 1.78125q-1.0 0.3125 -1.28125 0.3125q-0.5 0 -0.859375 -0.375q-0.359375 -0.375 -0.359375 -0.9375q0 -0.53125 0.3125 -0.84375q0.4375 -0.46875 3.53125 -1.28125q4.875 -1.3125 7.375 -1.3125q4.96875 0 7.75 2.453125q2.78125 2.453125 2.78125 5.546875l0 17.375l3.5 0q0.96875 0 1.375 0.359375q0.40625 0.359375 0.40625 0.953125q0 0.5625 -0.40625 0.9375q-0.40625 0.375 -1.375 0.375l-6.15625 0zm0 -13.0625q-1.84375 -0.53125 -3.90625 -0.78125q-2.0625 -0.25 -4.34375 -0.25q-5.71875 0 -8.9375 2.46875q-2.4375 1.84375 -2.4375 4.40625q0 2.375 1.859375 4.0q1.859375 1.625 5.421875 1.625q3.40625 0 6.328125 -1.359375q2.921875 -1.359375 6.015625 -4.328125l0 -5.78125zm20.96875 -26.15625l0 17.40625q4.75 -6.1875 11.46875 -6.1875q5.75 0 9.84375 4.171875q4.09375 4.171875 4.09375 10.234375q0 6.125 -4.140625 10.375q-4.140625 4.25 -9.796875 4.25q-6.875 0 -11.46875 -6.1875l0 5.15625l-6.15625 0q-0.9375 0 -1.34375 -0.375q-0.40625 -0.375 -0.40625 -0.9375q0 -0.59375 0.40625 -0.953125q0.40625 -0.359375 1.34375 -0.359375l3.53125 0l0 -33.9375l-3.53125 0q-0.9375 0 -1.34375 -0.375q-0.40625 -0.375 -0.40625 -0.96875q0 -0.5625 0.40625 -0.9375q0.40625 -0.375 1.34375 -0.375l6.15625 0zm22.78125 25.75q0 -4.96875 -3.40625 -8.421875q-3.40625 -3.453125 -7.96875 -3.453125q-4.5625 0 -7.96875 3.453125q-3.40625 3.453125 -3.40625 8.421875q0 4.96875 3.40625 8.421875q3.40625 3.453125 7.96875 3.453125q4.5625 0 7.96875 -3.453125q3.40625 -3.453125 3.40625 -8.421875zm22.375 -13.59375l0 6.625q5.125 -4.625 7.6718597 -5.953125q2.546875 -1.328125 4.703125 -1.328125q2.34375 0 4.359375 1.578125q2.015625 1.578125 2.015625 2.390625q0 0.59375 -0.390625 0.984375q-0.390625 0.390625 -0.984375 0.390625q-0.3125 0 -0.53125 -0.109375q-0.21875 -0.109375 -0.8125 -0.703125q-1.09375 -1.09375 -1.90625 -1.5q-0.8125 -0.40625 -1.59375 -0.40625q-1.71875 0 -4.140625 1.375q-2.421875 1.375 -8.39061 6.71875l0 14.375l11.624985 0q0.96875 0 1.375 0.359375q0.40625 0.359375 0.40625 0.953125q0 0.5625 -0.40625 0.9375q-0.40625 0.375 -1.375 0.375l-20.593735 0q-0.9375 0 -1.34375 -0.359375q-0.40625 -0.359375 -0.40625 -0.921875q0 -0.53125 0.390625 -0.890625q0.390625 -0.359375 1.359375 -0.359375l6.34375 0l0 -21.875l-4.84375 0q-0.9375 0 -1.34375 -0.375q-0.40625 -0.375 -0.40625 -0.96875q0 -0.5625 0.390625 -0.9375q0.390625 -0.375 1.359375 -0.375l7.46875 0zm55.749985 14.15625l-26.75 0q0.6875 5.09375 4.265625 8.203125q3.578125 3.109375 8.859375 3.109375q2.9375 0 6.15625 -0.96875q3.21875 -0.96875 5.25 -2.5625q0.59375 -0.46875 1.03125 -0.46875q0.5 0 0.875 0.390625q0.375 0.390625 0.375 0.921875q0 0.53125 -0.5 1.03125q-1.5 1.5625 -5.328125 2.921875q-3.828125 1.359375 -7.859375 1.359375q-6.75 0 -11.265625 -4.421875q-4.515625 -4.421875 -4.515625 -10.703125q0 -5.71875 4.234375 -9.8125q4.234375 -4.09375 10.484375 -4.09375q6.4375 0 10.59375 4.203125q4.15625 4.203125 4.09375 10.890625zm-2.65625 -2.65625q-0.78125 -4.34375 -4.109375 -7.0625q-3.328125 -2.71875 -7.921875 -2.71875q-4.59375 0 -7.90625 2.6875q-3.3125 2.6875 -4.125 7.09375l24.0625 0zm35.53125 -9.78125q0 -0.90625 0.375 -1.3125q0.375 -0.40625 0.9375 -0.40625q0.59375 0 0.96875 0.40625q0.375 0.40625 0.375 1.375l0 4.5q0 0.9375 -0.375 1.34375q-0.375 0.40625 -0.96875 0.40625q-0.53125 0 -0.890625 -0.34375q-0.359375 -0.34375 -0.421875 -1.125q-0.1875 -1.875 -1.9375 -3.09375q-2.5625 -1.75 -6.78125 -1.75q-4.40625 0 -6.84375 1.78125q-1.84375 1.34375 -1.84375 3.0q0 1.875 2.1875 3.125q1.5 0.875 5.6875 1.34375q5.46875 0.59375 7.59375 1.34375q3.03125 1.09375 4.515625 3.03125q1.484375 1.9375 1.484375 4.1875q0 3.34375 -3.21875 5.953125q-3.21875 2.609375 -9.4375 2.609375q-6.21875 0 -10.1875 -3.15625q0 1.0625 -0.125 1.375q-0.125 0.3125 -0.453125 0.53125q-0.328125 0.21875 -0.734375 0.21875q-0.5625 0 -0.9375 -0.40625q-0.375 -0.40625 -0.375 -1.34375l0 -5.40625q0 -0.9375 0.359375 -1.34375q0.359375 -0.40625 0.953125 -0.40625q0.5625 0 0.953125 0.390625q0.390625 0.390625 0.390625 1.046875q0 1.4375 0.71875 2.40625q1.09375 1.5 3.484375 2.484375q2.390625 0.984375 5.859375 0.984375q5.125 0 7.625 -1.90625q2.5 -1.90625 2.5 -4.03125q0 -2.4375 -2.53125 -3.90625q-2.5625 -1.46875 -7.453125 -1.96875q-4.890625 -0.5 -7.015625 -1.3125q-2.125 -0.8125 -3.3125 -2.4375q-1.1875 -1.625 -1.1875 -3.5q0 -3.375 3.3125 -5.359375q3.3125 -1.984375 7.90625 -1.984375q5.4375 0 8.84375 2.65625zm43.9375 12.4375l-26.75 0q0.6875 5.09375 4.265625 8.203125q3.578125 3.109375 8.859375 3.109375q2.9375 0 6.15625 -0.96875q3.21875 -0.96875 5.25 -2.5625q0.59375 -0.46875 1.03125 -0.46875q0.5 0 0.875 0.390625q0.375 0.390625 0.375 0.921875q0 0.53125 -0.5 1.03125q-1.5 1.5625 -5.328125 2.921875q-3.828125 1.359375 -7.859375 1.359375q-6.75 0 -11.265625 -4.421875q-4.515625 -4.421875 -4.515625 -10.703125q0 -5.71875 4.234375 -9.8125q4.234375 -4.09375 10.484375 -4.09375q6.4375 0 10.59375 4.203125q4.15625 4.203125 4.09375 10.890625zm-2.65625 -2.65625q-0.78125 -4.34375 -4.109375 -7.0625q-3.328125 -2.71875 -7.921875 -2.71875q-4.59375 0 -7.90625 2.6875q-3.3125 2.6875 -4.125 7.09375l24.0625 0z" fill-rule="nonzero"/></g></svg>